<svg width="0" height="0" class="hidden">
  <symbol fill="none" xmlns="http://www.w3.org/2000/svg" viewBox="0 0 24 24" id="arrow">
    <path fill-rule="evenodd" clip-rule="evenodd" d="M10.6585 5.75259C11.0741 5.38891 11.1163 4.75715 10.7526 4.34151C10.3889 3.92587 9.75713 3.88376 9.3415 4.24744L1.3415 11.2474C1.12448 11.4373 1 11.7117 1 12C1 12.2884 1.12448 12.5627 1.3415 12.7526L9.3415 19.7526C9.75713 20.1163 10.3889 20.0742 10.7526 19.6585C11.1163 19.2429 11.0741 18.6111 10.6585 18.2474L4.66145 13H22C22.5523 13 23 12.5523 23 12C23 11.4477 22.5523 11 22 11H4.66145L10.6585 5.75259Z" fill="#A3AED0"></path>
  </symbol>
  <symbol fill="none" xmlns="http://www.w3.org/2000/svg" viewBox="0 0 24 24" id="canba">
    <g clip-path="url(#clip0_9_936)">
      <path d="M4 13H10C10.55 13 11 12.55 11 12V4C11 3.45 10.55 3 10 3H4C3.45 3 3 3.45 3 4V12C3 12.55 3.45 13 4 13ZM4 21H10C10.55 21 11 20.55 11 20V16C11 15.45 10.55 15 10 15H4C3.45 15 3 15.45 3 16V20C3 20.55 3.45 21 4 21ZM14 21H20C20.55 21 21 20.55 21 20V12C21 11.45 20.55 11 20 11H14C13.45 11 13 11.45 13 12V20C13 20.55 13.45 21 14 21ZM13 4V8C13 8.55 13.45 9 14 9H20C20.55 9 21 8.55 21 8V4C21 3.45 20.55 3 20 3H14C13.45 3 13 3.45 13 4Z" fill="#A3AED0"></path>
    </g>
    <defs>
      <clipPath id="clip0_9_936">
        <rect width="24" height="24" fill="white"></rect>
      </clipPath>
    </defs>
  </symbol>
  <symbol fill="none" xmlns="http://www.w3.org/2000/svg" viewBox="0 0 24 24" id="cancel">
    <g clip-path="url(#clip0_10_1367)">
      <path d="M12 2C6.47 2 2 6.47 2 12C2 17.53 6.47 22 12 22C17.53 22 22 17.53 22 12C22 6.47 17.53 2 12 2ZM16.3 16.3C15.91 16.69 15.28 16.69 14.89 16.3L12 13.41L9.11 16.3C8.72 16.69 8.09 16.69 7.7 16.3C7.31 15.91 7.31 15.28 7.7 14.89L10.59 12L7.7 9.11C7.31 8.72 7.31 8.09 7.7 7.7C8.09 7.31 8.72 7.31 9.11 7.7L12 10.59L14.89 7.7C15.28 7.31 15.91 7.31 16.3 7.7C16.69 8.09 16.69 8.72 16.3 9.11L13.41 12L16.3 14.89C16.68 15.27 16.68 15.91 16.3 16.3Z" fill="#EE5D50"></path>
    </g>
    <defs>
      <clipPath id="clip0_10_1367">
        <rect width="24" height="24" fill="white"></rect>
      </clipPath>
    </defs>
  </symbol>
  <symbol fill="none" xmlns="http://www.w3.org/2000/svg" viewBox="0 0 24 24" id="card">
    <g clip-path="url(#clip0_9_939)">
      <path d="M15.55 13C16.3 13 16.96 12.59 17.3 11.97L20.88 5.48C21.25 4.82 20.77 4 20.01 4H5.21L4.27 2H1V4H3L6.6 11.59L5.25 14.03C4.52 15.37 5.48 17 7 17H19V15H7L8.1 13H15.55ZM6.16 6H18.31L15.55 11H8.53L6.16 6ZM7 18C5.9 18 5.01 18.9 5.01 20C5.01 21.1 5.9 22 7 22C8.1 22 9 21.1 9 20C9 18.9 8.1 18 7 18ZM17 18C15.9 18 15.01 18.9 15.01 20C15.01 21.1 15.9 22 17 22C18.1 22 19 21.1 19 20C19 18.9 18.1 18 17 18Z" fill="#A3AED0"></path>
    </g>
    <defs>
      <clipPath id="clip0_9_939">
        <rect width="24" height="24" fill="white"></rect>
      </clipPath>
    </defs>
  </symbol>
  <symbol fill="none" xmlns="http://www.w3.org/2000/svg" viewBox="0 0 24 24" id="change">
    <path d="M8.94953 15.7413L8.83827 11.1516H10.1178C11.0636 11.1516 11.9259 11.0682 12.7047 10.9013C13.4836 10.7344 14.1048 10.4098 14.5684 9.92768C15.0321 9.44553 15.2639 8.74085 15.2639 7.81363C15.2639 6.92351 14.995 6.2281 14.4572 5.7274C13.9194 5.20816 13.2054 4.94854 12.3153 4.94854C11.3881 4.94854 10.6649 5.20816 10.1456 5.7274C9.6264 6.2281 9.36678 6.91423 9.36678 7.78581H6.00099C5.98245 6.67316 6.22352 5.68104 6.72422 4.80946C7.22492 3.93788 7.94814 3.25174 8.8939 2.75104C9.8582 2.25035 11.0079 2 12.3431 2C13.5856 2 14.6797 2.2318 15.6255 2.69541C16.5898 3.15902 17.3408 3.82661 17.8786 4.69819C18.4349 5.55123 18.7131 6.59898 18.7131 7.84145C18.7131 9.121 18.4257 10.178 17.8508 11.0125C17.2945 11.847 16.5249 12.4682 15.542 12.8762C14.5777 13.2842 13.4558 13.4975 12.1762 13.516L12.0928 15.7413H8.94953ZM10.5351 22C9.88602 22 9.34824 21.796 8.92172 21.388C8.51374 20.9801 8.30976 20.4886 8.30976 19.9138C8.30976 19.3204 8.51374 18.8197 8.92172 18.4117C9.34824 18.0037 9.88602 17.7997 10.5351 17.7997C11.1841 17.7997 11.7126 18.0037 12.1206 18.4117C12.5286 18.8197 12.7326 19.3204 12.7326 19.9138C12.7326 20.4886 12.5286 20.9801 12.1206 21.388C11.7126 21.796 11.1841 22 10.5351 22Z" fill="#2B3674"></path>
  </symbol>
  <symbol fill="none" xmlns="http://www.w3.org/2000/svg" viewBox="0 0 24 24" id="check_circle">
    <g clip-path="url(#clip0_10_1306)">
      <path d="M12 2C6.48 2 2 6.48 2 12C2 17.52 6.48 22 12 22C17.52 22 22 17.52 22 12C22 6.48 17.52 2 12 2ZM9.29 16.29L5.7 12.7C5.31 12.31 5.31 11.68 5.7 11.29C6.09 10.9 6.72 10.9 7.11 11.29L10 14.17L16.88 7.29C17.27 6.9 17.9 6.9 18.29 7.29C18.68 7.68 18.68 8.31 18.29 8.7L10.7 16.29C10.32 16.68 9.68 16.68 9.29 16.29Z" fill="#05CD99"></path>
    </g>
    <defs>
      <clipPath id="clip0_10_1306">
        <rect width="24" height="24" fill="white"></rect>
      </clipPath>
    </defs>
  </symbol>
  <symbol fill="none" xmlns="http://www.w3.org/2000/svg" viewBox="0 0 18 18" id="checkbox">
    <path d="M16 0H2C0.9 0 0 0.9 0 2V16C0 17.1 0.9 18 2 18H16C17.1 18 18 17.1 18 16V2C18 0.9 17.1 0 16 0ZM7.71 13.29C7.32 13.68 6.69 13.68 6.3 13.29L2.71 9.7C2.32 9.31 2.32 8.68 2.71 8.29C3.1 7.9 3.73 7.9 4.12 8.29L7 11.17L13.88 4.29C14.27 3.9 14.9 3.9 15.29 4.29C15.68 4.68 15.68 5.31 15.29 5.7L7.71 13.29Z" fill="#2B3674"></path>
  </symbol>
  <symbol fill="none" xmlns="http://www.w3.org/2000/svg" viewBox="0 0 24 24" id="chevron">
    <path fill-rule="evenodd" clip-rule="evenodd" d="M4.4135 9.43934C4.96482 8.85355 5.8587 8.85355 6.41003 9.43934L12 15.3787L17.59 9.43934C18.1413 8.85355 19.0352 8.85355 19.5865 9.43934C20.1378 10.0251 20.1378 10.9749 19.5865 11.5607L12.9983 18.5607C12.4469 19.1464 11.5531 19.1464 11.0017 18.5607L4.4135 11.5607C3.86217 10.9749 3.86217 10.0251 4.4135 9.43934Z" fill="#2B3674"></path>
  </symbol>
  <symbol fill="none" xmlns="http://www.w3.org/2000/svg" viewBox="0 0 24 24" id="cross">
    <path fill-rule="evenodd" clip-rule="evenodd" d="M4.70696 4.70711C5.09748 4.31658 5.73064 4.31658 6.12117 4.70711L19.5562 18.1421C19.9467 18.5327 19.9467 19.1658 19.5562 19.5563C19.1657 19.9469 18.5325 19.9469 18.142 19.5563L4.70696 6.12132C4.31643 5.7308 4.31643 5.09763 4.70696 4.70711Z" fill="#A3AED0"></path>
    <path fill-rule="evenodd" clip-rule="evenodd" d="M19.7071 4.70711C19.3166 4.31658 18.6834 4.31658 18.2929 4.70711L4.85786 18.1421C4.46734 18.5327 4.46734 19.1658 4.85786 19.5563C5.24839 19.9469 5.88155 19.9469 6.27208 19.5563L19.7071 6.12132C20.0976 5.7308 20.0976 5.09763 19.7071 4.70711Z" fill="#A3AED0"></path>
  </symbol>
  <symbol fill="none" xmlns="http://www.w3.org/2000/svg" viewBox="0 0 32 32" id="cursor">
    <path d="M12 25L6.5 6.5L25 12L19.5 16L26.5 23L23 26.5L15.5 20L12 25Z" fill="white"></path>
    <path d="M22.9999 28.0001C22.8683 28.0009 22.7378 27.9756 22.616 27.9259C22.4942 27.8761 22.3834 27.8028 22.2899 27.7101L16.1599 21.5701L12.8299 26.5701C12.7239 26.7325 12.5729 26.8606 12.3953 26.9387C12.2178 27.0169 12.0213 27.0417 11.8299 27.0101C11.6424 26.9822 11.4668 26.9016 11.3233 26.7776C11.1799 26.6537 11.0747 26.4915 11.0199 26.3101L5.01991 6.3101C4.94859 6.13098 4.93057 5.93506 4.96802 5.74594C5.00547 5.55682 5.09679 5.38255 5.23099 5.24413C5.36519 5.1057 5.53654 5.00902 5.72441 4.96573C5.91228 4.92243 6.10866 4.93437 6.28991 5.0001L26.2899 11.0001C26.4714 11.0549 26.6335 11.1601 26.7574 11.3035C26.8814 11.4469 26.962 11.6226 26.9899 11.8101C27.0215 12.0015 26.9967 12.1979 26.9185 12.3755C26.8404 12.5531 26.7123 12.7041 26.5499 12.8101L21.5499 16.1401L27.6899 22.2701C27.7836 22.3631 27.858 22.4737 27.9088 22.5955C27.9596 22.7174 27.9857 22.8481 27.9857 22.9801C27.9857 23.1121 27.9596 23.2428 27.9088 23.3647C27.858 23.4865 27.7836 23.5971 27.6899 23.6901L23.6899 27.6901C23.5094 27.8798 23.2616 27.9911 22.9999 28.0001ZM22.9999 25.5901L25.5899 23.0001L18.4299 15.8501L23.6799 12.3501L7.48991 7.4901L12.3499 23.6801L15.8499 18.4301L22.9999 25.5901Z" fill="#2B3674"></path>
  </symbol>
  <symbol fill="none" xmlns="http://www.w3.org/2000/svg" viewBox="0 0 24 24" id="error">
    <path d="M12 2C6.48 2 2 6.48 2 12C2 17.52 6.48 22 12 22C17.52 22 22 17.52 22 12C22 6.48 17.52 2 12 2ZM13 17H11V15H13V17ZM13 13H11V7H13V13Z" fill="#FFCE20"></path>
  </symbol>
  <symbol fill="none" xmlns="http://www.w3.org/2000/svg" viewBox="0 0 24 24" id="home">
    <g clip-path="url(#clip0_9_938)">
      <path d="M10.0001 19V14H14.0001V19C14.0001 19.55 14.4501 20 15.0001 20H18.0001C18.5501 20 19.0001 19.55 19.0001 19V12H20.7001C21.1601 12 21.3801 11.43 21.0301 11.13L12.6701 3.59997C12.2901 3.25997 11.7101 3.25997 11.3301 3.59997L2.9701 11.13C2.6301 11.43 2.8401 12 3.3001 12H5.0001V19C5.0001 19.55 5.4501 20 6.0001 20H9.0001C9.5501 20 10.0001 19.55 10.0001 19Z" fill="#A3AED0"></path>
    </g>
    <defs>
      <clipPath id="clip0_9_938">
        <rect width="24" height="24" fill="white"></rect>
      </clipPath>
    </defs>
  </symbol>
  <symbol fill="none" xmlns="http://www.w3.org/2000/svg" viewBox="0 0 24 24" id="edit">
    <path fill-rule="evenodd" clip-rule="evenodd" d="M18.2597 3.4447C17.313 2.49794 15.778 2.49793 14.8313 3.44467L3.56717 14.7088C3.40778 14.8682 3.29599 15.0688 3.24437 15.2883L2.03225 20.4398C1.9361 20.8484 2.05822 21.2777 2.35505 21.5745C2.65187 21.8713 3.08115 21.9934 3.48977 21.8973L8.64128 20.6852C8.8607 20.6335 9.06137 20.5218 9.22076 20.3624L20.4849 9.09823C21.4316 8.1515 21.4315 6.61658 20.4849 5.66985L18.2597 3.4447ZM16.5455 5.15887L18.7706 7.38402L7.75038 18.4043L4.84051 19.089L5.52519 16.1792L16.5455 5.15887ZM14.1212 19.5053C13.4518 19.5053 12.9091 20.048 12.9091 20.7174C12.9091 21.3868 13.4518 21.9295 14.1212 21.9295H20.7879C21.4573 21.9295 22 21.3868 22 20.7174C22 20.048 21.4573 19.5053 20.7879 19.5053H14.1212Z" fill="#A3AED0"></path>
  </symbol>
  <symbol fill="none" xmlns="http://www.w3.org/2000/svg" viewBox="0 0 24 24" id="image">
    <path fill-rule="evenodd" clip-rule="evenodd" d="M7 4C5.34315 4 4 5.34315 4 7V16.2401V16.2586V17.5C4 19.1569 5.34315 20.5 7 20.5H17.5C19.1569 20.5 20.5 19.1569 20.5 17.5V7C20.5 5.34315 19.1569 4 17.5 4H7ZM6 17.5V16.596L8.53236 13.3747C8.9217 12.8794 9.66651 12.8632 10.0771 13.3411C10.0911 13.3575 10.1058 13.3735 10.1209 13.3889L10.2954 13.5672C10.3576 13.6768 10.4417 13.7764 10.547 13.8591C10.5807 13.8857 10.6157 13.9097 10.6516 13.9313L15.1223 18.5H7C6.44771 18.5 6 18.0523 6 17.5ZM17.8566 18.4346L12.513 12.9739C13.3998 11.8389 14.3519 10.6082 14.5132 10.3996L14.5135 10.3991L14.5323 10.3749L14.5365 10.3694C14.927 9.87929 15.668 9.86495 16.0771 10.3411L18.4915 13.1516L18.5 13.1614V17.5C18.5 17.9267 18.2328 18.291 17.8566 18.4346ZM14.5365 10.3694L13.7513 9.75017L14.5349 10.3714L14.5365 10.3694ZM18.5 7V10.0923L17.5941 9.03782C16.3652 7.60731 14.138 7.65263 12.9677 9.12895L12.9662 9.13082L12.9482 9.15395L12.9316 9.1754L12.9315 9.17561C12.7785 9.37337 11.9189 10.4846 11.0783 11.5616C9.81 10.64 7.97914 10.8423 6.96002 12.1387L6 13.3599V7C6 6.44771 6.44771 6 7 6H17.5C18.0523 6 18.5 6.44771 18.5 7ZM8.74996 10.25C9.57838 10.25 10.25 9.57843 10.25 8.75C10.25 7.92157 9.57838 7.25 8.74996 7.25C7.92153 7.25 7.24996 7.92157 7.24996 8.75C7.24996 9.57843 7.92153 10.25 8.74996 10.25Z" fill="#2B3674"></path>
  </symbol>
  <symbol fill="none" xmlns="http://www.w3.org/2000/svg" viewBox="0 0 24 24" id="list">
    <path fill-rule="evenodd" clip-rule="evenodd" d="M6 2.75C4.75736 2.75 3.75 3.75736 3.75 5V8.50025C3.75 9.74297 4.75744 10.7502 6 10.7502H18.5C19.7426 10.7502 20.75 9.74295 20.75 8.50025V5C20.75 3.75738 19.7427 2.75 18.5 2.75H6ZM6.25 8.2502V5.25H18.25V8.2502H6.25ZM6.25 13C5.00738 13 4 14.0073 4 15.25V18.7502C4 19.9929 5.00738 21.0002 6.25 21.0002H18.75C19.9927 21.0002 21 19.9929 21 18.7502V15.25C21 14.0073 19.9927 13 18.75 13H6.25ZM6.5 18.5002V15.5H18.5V18.5002H6.5Z" fill="#A3AED0"></path>
  </symbol>
  <symbol fill="none" xmlns="http://www.w3.org/2000/svg" viewBox="0 0 24 24" id="lock">
    <path d="M18 8H17V6C17 3.24 14.76 1 12 1C9.24 1 7 3.24 7 6V8H6C4.9 8 4 8.9 4 10V20C4 21.1 4.9 22 6 22H18C19.1 22 20 21.1 20 20V10C20 8.9 19.1 8 18 8ZM12 17C10.9 17 10 16.1 10 15C10 13.9 10.9 13 12 13C13.1 13 14 13.9 14 15C14 16.1 13.1 17 12 17ZM9 8V6C9 4.34 10.34 3 12 3C13.66 3 15 4.34 15 6V8H9Z" fill="#A3AED0"></path>
  </symbol>
  <symbol fill="none" xmlns="http://www.w3.org/2000/svg" viewBox="0 0 24 24" id="remove">
    <path d="M14.5 10.7879C15.1904 10.7879 15.75 11.3306 15.75 12V16.8485C15.75 17.5179 15.1904 18.0606 14.5 18.0606C13.8096 18.0606 13.25 17.5179 13.25 16.8485V12C13.25 11.3306 13.8096 10.7879 14.5 10.7879Z" fill="#2B3674"></path>
    <path d="M12 12C12 11.3306 11.4404 10.7879 10.75 10.7879C10.0596 10.7879 9.5 11.3306 9.5 12V16.8485C9.5 17.5179 10.0596 18.0606 10.75 18.0606C11.4404 18.0606 12 17.5179 12 16.8485V12Z" fill="#2B3674"></path>
    <path fill-rule="evenodd" clip-rule="evenodd" d="M16.375 5.63636H20.75C21.4404 5.63636 22 6.17905 22 6.84848C22 7.51792 21.4404 8.06061 20.75 8.06061H20.0211L19.0689 18.6786C18.9005 20.5578 17.2781 22 15.3331 22H9.29211C7.34699 22 5.72472 20.5578 5.55621 18.6787L4.60405 8.06061H3.25C2.55964 8.06061 2 7.51792 2 6.84848C2 6.17905 2.55964 5.63636 3.25 5.63636H8.25C8.25 3.62807 9.92888 2 12 2H12.625C14.6961 2 16.375 3.62807 16.375 5.63636ZM12 4.42424C11.3096 4.42424 10.75 4.96692 10.75 5.63636H13.875C13.875 4.96692 13.3154 4.42424 12.625 4.42424H12ZM7.11349 8.06061L8.04681 18.4687C8.10298 19.095 8.6437 19.5758 9.29211 19.5758H15.3331C15.9815 19.5758 16.5222 19.095 16.5783 18.4688L17.5117 8.06061H7.11349Z" fill="#2B3674"></path>
  </symbol>
  <symbol fill="none" xmlns="http://www.w3.org/2000/svg" viewBox="0 0 24 24" id="share">
    <path fill-rule="evenodd" clip-rule="evenodd" d="M3.5 6.75C3.5 4.95507 4.95507 3.5 6.75 3.5H9.25C9.94036 3.5 10.5 4.05964 10.5 4.75C10.5 5.44036 9.94036 6 9.25 6H6.75C6.33579 6 6 6.33579 6 6.75V17.25C6 17.6642 6.33577 18 6.75 18H17.25C17.6642 18 18 17.6642 18 17.25V14.75C18 14.0596 18.5596 13.5 19.25 13.5C19.9404 13.5 20.5 14.0596 20.5 14.75V17.25C20.5 19.045 19.045 20.5 17.25 20.5H6.75C4.95509 20.5 3.5 19.045 3.5 17.25V6.75ZM13.5 4.75C13.5 4.05964 14.0596 3.5 14.75 3.5H19.25C19.9404 3.5 20.5 4.05964 20.5 4.75V9.25C20.5 9.94036 19.9404 10.5 19.25 10.5C18.5596 10.5 18 9.94036 18 9.25V7.76777L12.6339 13.1339C12.1457 13.622 11.3543 13.622 10.8661 13.1339C10.378 12.6457 10.378 11.8543 10.8661 11.3661L16.2322 6H14.75C14.0596 6 13.5 5.44036 13.5 4.75Z" fill="#A3AED0"></path>
  </symbol>
  <symbol fill="none" xmlns="http://www.w3.org/2000/svg" viewBox="0 0 28 28" id="stat">
    <g clip-path="url(#clip0_9_937)">
      <path d="M7.46659 10.7333H7.69992C8.59825 10.7333 9.33325 11.4683 9.33325 12.3666V20.5333C9.33325 21.4316 8.59825 22.1666 7.69992 22.1666H7.46659C6.56825 22.1666 5.83325 21.4316 5.83325 20.5333V12.3666C5.83325 11.4683 6.56825 10.7333 7.46659 10.7333ZM13.9999 5.83325C14.8983 5.83325 15.6333 6.56825 15.6333 7.46659V20.5333C15.6333 21.4316 14.8983 22.1666 13.9999 22.1666C13.1016 22.1666 12.3666 21.4316 12.3666 20.5333V7.46659C12.3666 6.56825 13.1016 5.83325 13.9999 5.83325ZM20.5333 15.1666C21.4316 15.1666 22.1666 15.9016 22.1666 16.7999V20.5333C22.1666 21.4316 21.4316 22.1666 20.5333 22.1666C19.6349 22.1666 18.8999 21.4316 18.8999 20.5333V16.7999C18.8999 15.9016 19.6349 15.1666 20.5333 15.1666Z" fill="#A3AED0"></path>
    </g>
    <defs>
      <clipPath id="clip0_9_937">
        <rect width="28" height="28" fill="white"></rect>
      </clipPath>
    </defs>
  </symbol>
  <symbol fill="none" xmlns="http://www.w3.org/2000/svg" viewBox="0 0 24 24" id="text">
    <path fill-rule="evenodd" clip-rule="evenodd" d="M7.24 2.75C5.33014 2.75 3.75 4.28022 3.75 6.2069V17.7931C3.75 19.7198 5.33015 21.25 7.24 21.25H16.76C18.6699 21.25 20.25 19.7198 20.25 17.7931V9V8.68966C20.25 8.35491 20.1157 8.03415 19.8773 7.79922L15.1173 3.10956C14.8834 2.87915 14.5683 2.75 14.24 2.75H14H7.24ZM12.75 5.25H7.24C6.67563 5.25 6.25 5.6959 6.25 6.2069V17.7931C6.25 18.3041 6.67561 18.75 7.24 18.75H16.76C17.3244 18.75 17.75 18.3041 17.75 17.7931V10.25H14C13.3096 10.25 12.75 9.69036 12.75 9V5.25ZM16.2652 7.75H15.25V6.74983L16.2652 7.75ZM7.75 16C7.75 15.3096 8.30964 14.75 9 14.75H15C15.6904 14.75 16.25 15.3096 16.25 16C16.25 16.6904 15.6904 17.25 15 17.25H9C8.30964 17.25 7.75 16.6904 7.75 16ZM9 10.75C8.30964 10.75 7.75 11.3096 7.75 12C7.75 12.6904 8.30964 13.25 9 13.25H15C15.6904 13.25 16.25 12.6904 16.25 12C16.25 11.3096 15.6904 10.75 15 10.75H9Z" fill="#A3AED0"></path>
  </symbol>
  <symbol fill="none" xmlns="http://www.w3.org/2000/svg" viewBox="0 0 24 24" id="time">
    <g clip-path="url(#clip0_11_1390)">
      <path d="M10.5 6V11.8333L14 16L15.5 14L13 11V6H10.5Z" fill="#2B3674"></path>
      <path fill-rule="evenodd" clip-rule="evenodd" d="M12 0.5C5.64873 0.5 0.5 5.64873 0.5 12C0.5 18.3513 5.64873 23.5 12 23.5C18.3513 23.5 23.5 18.3513 23.5 12C23.5 5.64873 18.3513 0.5 12 0.5ZM3.5 12C3.5 7.30558 7.30558 3.5 12 3.5C16.6944 3.5 20.5 7.30558 20.5 12C20.5 16.6944 16.6944 20.5 12 20.5C7.30558 20.5 3.5 16.6944 3.5 12Z" fill="#2B3674"></path>
    </g>
    <defs>
      <clipPath id="clip0_11_1390">
        <rect width="24" height="24" fill="white"></rect>
      </clipPath>
    </defs>
  </symbol>
  <symbol fill="none" xmlns="http://www.w3.org/2000/svg" viewBox="0 0 24 24" id="upload">
    <path d="M12.916 3.89944C12.6795 3.64473 12.3476 3.5 12 3.5C11.6524 3.5 11.3205 3.64473 11.084 3.89944L7.83401 7.39944C7.36425 7.90532 7.39355 8.69624 7.89944 9.16599C8.40532 9.63575 9.19624 9.60645 9.66599 9.10056L10.75 7.93317V14.25C10.75 14.9404 11.3096 15.5 12 15.5C12.6904 15.5 13.25 14.9404 13.25 14.25V7.93317L14.334 9.10056C14.8038 9.60645 15.5947 9.63575 16.1006 9.16599C16.6065 8.69624 16.6357 7.90532 16.166 7.39944L12.916 3.89944Z" fill="#A3AED0"></path>
    <path d="M4.75 13.5C5.44036 13.5 6 14.0596 6 14.75V16.25C6 17.2165 6.78349 18 7.75 18H16.25C17.2165 18 18 17.2165 18 16.25V14.75C18 14.0596 18.5596 13.5 19.25 13.5C19.9404 13.5 20.5 14.0596 20.5 14.75V16.25C20.5 18.5973 18.5973 20.5 16.25 20.5H7.75C5.40281 20.5 3.5 18.5973 3.5 16.25V14.75C3.5 14.0596 4.05964 13.5 4.75 13.5Z" fill="#A3AED0"></path>
  </symbol>
  <symbol fill="none" xmlns="http://www.w3.org/2000/svg" viewBox="0 0 24 24" id="user">
    <g clip-path="url(#clip0_6_201)">
      <path d="M12 12C14.21 12 16 10.21 16 8C16 5.79 14.21 4 12 4C9.79 4 8 5.79 8 8C8 10.21 9.79 12 12 12ZM12 14C9.33 14 4 15.34 4 18V19C4 19.55 4.45 20 5 20H19C19.55 20 20 19.55 20 19V18C20 15.34 14.67 14 12 14Z" fill="#A3AED0"></path>
    </g>
    <defs>
      <clipPath id="clip0_6_201">
        <rect width="24" height="24" fill="white"></rect>
      </clipPath>
    </defs>
  </symbol>
</svg>